<svg width="472" height="47" viewBox="0 0 472 47" fill="none" xmlns="http://www.w3.org/2000/svg">
<path d="M3.384 36C2.648 36 2.008 35.728 1.464 35.184C0.92 34.64 0.648 34 0.648 33.264V3.696C0.648 2.96 0.92 2.32 1.464 1.776C2.008 1.232 2.648 0.959999 3.384 0.959999H6.12C6.856 0.959999 7.48 1.232 7.992 1.776C8.536 2.32 8.808 2.96 8.808 3.696V15.936C8.808 15.968 8.824 15.984 8.856 15.984C8.92 15.984 8.952 15.968 8.952 15.936L17.112 3.264C18.072 1.728 19.464 0.959999 21.288 0.959999H25.32C25.896 0.959999 26.312 1.216 26.568 1.728C26.824 2.24 26.792 2.736 26.472 3.216L16.728 17.424C16.568 17.648 16.568 17.872 16.728 18.096L27 33.744C27.32 34.224 27.336 34.72 27.048 35.232C26.792 35.744 26.376 36 25.8 36H21.768C19.944 36 18.568 35.232 17.64 33.696L8.952 19.584C8.952 19.552 8.92 19.536 8.856 19.536C8.824 19.536 8.808 19.552 8.808 19.584V33.264C8.808 34 8.536 34.64 7.992 35.184C7.48 35.728 6.856 36 6.12 36H3.384ZM46.7974 36.48C41.4214 36.48 37.1174 34.896 33.8854 31.728C30.6534 28.528 29.0374 24.112 29.0374 18.48C29.0374 12.816 30.6214 8.4 33.7894 5.232C36.9574 2.064 41.4054 0.48 47.1334 0.48C49.5014 0.48 51.7894 0.671999 53.9974 1.056C54.7654 1.184 55.3894 1.568 55.8694 2.208C56.3814 2.816 56.6374 3.52 56.6374 4.32V5.616C56.6374 6.288 56.3654 6.832 55.8214 7.248C55.2774 7.664 54.6694 7.792 53.9974 7.632C52.0134 7.184 50.0454 6.96 48.0934 6.96C40.9254 6.96 37.3414 10.8 37.3414 18.48C37.3414 22.32 38.1894 25.2 39.8854 27.12C41.6134 29.04 44.0774 30 47.2774 30C48.2694 30 49.2774 29.872 50.3014 29.616C50.5894 29.552 50.7334 29.376 50.7334 29.088V21.264C50.7334 21.008 50.5894 20.88 50.3014 20.88H45.8374C45.1014 20.88 44.4614 20.608 43.9174 20.064C43.3734 19.52 43.1014 18.88 43.1014 18.144V17.424C43.1014 16.688 43.3734 16.048 43.9174 15.504C44.4614 14.96 45.1014 14.688 45.8374 14.688H55.7734C56.5094 14.688 57.1334 14.96 57.6454 15.504C58.1894 16.048 58.4614 16.688 58.4614 17.424V31.776C58.4614 32.608 58.2214 33.36 57.7414 34.032C57.2614 34.672 56.6374 35.104 55.8694 35.328C52.9894 36.096 49.9654 36.48 46.7974 36.48ZM90.3746 21.12V29.568C90.3746 29.856 90.5186 30.032 90.8066 30.096C91.4786 30.224 92.2946 30.288 93.2546 30.288C95.5266 30.288 97.1906 29.872 98.2466 29.04C99.3026 28.176 99.8306 26.864 99.8306 25.104C99.8306 22.16 97.4306 20.688 92.6306 20.688H90.7586C90.5026 20.688 90.3746 20.832 90.3746 21.12ZM90.3746 7.392V14.448C90.3746 14.704 90.5026 14.832 90.7586 14.832H91.9586C96.6306 14.832 98.9666 13.44 98.9666 10.656C98.9666 8 97.0146 6.672 93.1106 6.672C92.1826 6.672 91.3986 6.736 90.7586 6.864C90.5026 6.928 90.3746 7.104 90.3746 7.392ZM85.0466 36.096C84.2786 36.032 83.6386 35.696 83.1266 35.088C82.6146 34.48 82.3586 33.792 82.3586 33.024V3.936C82.3586 3.136 82.6146 2.448 83.1266 1.872C83.6706 1.264 84.3266 0.927999 85.0946 0.863997C87.5906 0.607999 90.0386 0.48 92.4386 0.48C101.719 0.48 106.359 3.472 106.359 9.456C106.359 11.472 105.703 13.184 104.391 14.592C103.111 16 101.383 16.896 99.2066 17.28C99.1746 17.28 99.1586 17.312 99.1586 17.376C99.1586 17.408 99.1906 17.424 99.2546 17.424C101.783 17.776 103.783 18.736 105.255 20.304C106.759 21.872 107.511 23.744 107.511 25.92C107.511 29.472 106.327 32.128 103.959 33.888C101.623 35.616 97.9426 36.48 92.9186 36.48C90.3906 36.48 87.7666 36.352 85.0466 36.096ZM124.304 15.792C122.864 15.792 121.776 16.176 121.04 16.944C120.304 17.68 119.84 18.96 119.648 20.784C119.648 21.04 119.76 21.168 119.984 21.168H128.096C128.384 21.168 128.528 21.024 128.528 20.736C128.4 17.44 126.992 15.792 124.304 15.792ZM125.504 36.48C121.152 36.48 117.792 35.376 115.424 33.168C113.088 30.96 111.92 27.744 111.92 23.52C111.92 19.328 112.96 16.128 115.04 13.92C117.152 11.68 120.192 10.56 124.16 10.56C131.776 10.56 135.648 14.72 135.776 23.04C135.776 23.808 135.472 24.464 134.864 25.008C134.288 25.52 133.616 25.776 132.848 25.776H120.032C119.712 25.776 119.584 25.92 119.648 26.208C119.904 27.968 120.576 29.232 121.664 30C122.784 30.736 124.448 31.104 126.656 31.104C128.096 31.104 129.648 30.896 131.312 30.48C131.984 30.32 132.576 30.448 133.088 30.864C133.632 31.28 133.904 31.824 133.904 32.496V32.592C133.904 33.392 133.648 34.128 133.136 34.8C132.656 35.44 132.032 35.824 131.264 35.952C129.408 36.304 127.488 36.48 125.504 36.48ZM153.894 24.576C149.99 24.576 148.038 25.776 148.038 28.176C148.038 29.04 148.294 29.728 148.806 30.24C149.318 30.72 150.006 30.96 150.87 30.96C152.406 30.96 153.654 30.48 154.614 29.52C155.574 28.528 156.054 27.216 156.054 25.584V25.008C156.054 24.72 155.91 24.576 155.622 24.576H153.894ZM148.518 36.48C146.31 36.48 144.486 35.776 143.046 34.368C141.638 32.928 140.934 31.072 140.934 28.8C140.934 22.976 145.254 20.064 153.894 20.064H155.622C155.91 20.064 156.054 19.936 156.054 19.68V19.44C156.054 18.224 155.734 17.344 155.094 16.8C154.486 16.256 153.446 15.984 151.974 15.984C150.022 15.984 147.686 16.288 144.966 16.896C144.294 17.024 143.686 16.88 143.142 16.464C142.63 16.048 142.374 15.504 142.374 14.832V14.736C142.374 13.936 142.614 13.216 143.094 12.576C143.606 11.904 144.246 11.504 145.014 11.376C147.83 10.832 150.262 10.56 152.31 10.56C156.502 10.56 159.462 11.312 161.19 12.816C162.95 14.32 163.83 16.816 163.83 20.304V33.264C163.83 34 163.558 34.64 163.014 35.184C162.47 35.728 161.83 36 161.094 36H159.318C158.55 36 157.894 35.744 157.35 35.232C156.806 34.688 156.518 34.032 156.486 33.264V32.736C156.486 32.704 156.47 32.688 156.438 32.688C156.374 32.688 156.342 32.704 156.342 32.736C154.326 35.232 151.718 36.48 148.518 36.48ZM178.678 36.48C175.862 36.48 173.814 35.696 172.534 34.128C171.286 32.56 170.662 29.872 170.662 26.064V13.776C170.662 13.04 170.934 12.4 171.478 11.856C172.022 11.312 172.662 11.04 173.398 11.04H175.51C176.246 11.04 176.886 11.312 177.43 11.856C177.974 12.4 178.246 13.04 178.246 13.776V25.536C178.246 27.392 178.486 28.672 178.966 29.376C179.478 30.048 180.342 30.384 181.558 30.384C182.678 30.384 183.702 29.936 184.63 29.04C185.558 28.112 186.022 27.12 186.022 26.064V13.776C186.022 13.04 186.294 12.4 186.838 11.856C187.382 11.312 188.022 11.04 188.758 11.04H191.062C191.798 11.04 192.438 11.312 192.982 11.856C193.526 12.4 193.798 13.04 193.798 13.776V33.264C193.798 34 193.526 34.64 192.982 35.184C192.438 35.728 191.798 36 191.062 36H189.094C188.326 36 187.67 35.744 187.126 35.232C186.614 34.688 186.342 34.032 186.31 33.264V32.88C186.31 32.848 186.294 32.832 186.262 32.832L186.166 32.928C184.086 35.296 181.59 36.48 178.678 36.48ZM203.128 17.424C202.392 17.424 201.752 17.168 201.208 16.656C200.664 16.112 200.392 15.472 200.392 14.736C200.392 14 200.664 13.36 201.208 12.816C201.752 12.272 202.392 12 203.128 12H205.048C205.304 12 205.432 11.856 205.432 11.568V5.616C205.432 4.88 205.704 4.24 206.248 3.696C206.792 3.152 207.432 2.88 208.168 2.88H210.472C211.208 2.88 211.848 3.152 212.392 3.696C212.936 4.24 213.208 4.88 213.208 5.616V11.568C213.208 11.856 213.352 12 213.64 12H218.344C219.08 12 219.704 12.272 220.216 12.816C220.76 13.36 221.032 14 221.032 14.736C221.032 15.472 220.76 16.112 220.216 16.656C219.704 17.168 219.08 17.424 218.344 17.424H213.64C213.352 17.424 213.208 17.568 213.208 17.856V26.064C213.208 28.08 213.384 29.36 213.736 29.904C214.12 30.448 214.952 30.72 216.232 30.72C216.904 30.72 217.432 30.688 217.816 30.624C218.52 30.528 219.144 30.688 219.688 31.104C220.232 31.52 220.504 32.064 220.504 32.736V33.12C220.504 33.92 220.248 34.624 219.736 35.232C219.224 35.84 218.568 36.192 217.768 36.288C216.776 36.416 215.624 36.48 214.312 36.48C211.048 36.48 208.744 35.792 207.4 34.416C206.088 33.008 205.432 30.496 205.432 26.88V17.856C205.432 17.568 205.304 17.424 205.048 17.424H203.128ZM232.749 36C232.013 36 231.373 35.728 230.829 35.184C230.285 34.64 230.013 34 230.013 33.264V13.776C230.013 13.04 230.285 12.4 230.829 11.856C231.373 11.312 232.013 11.04 232.749 11.04H235.437C236.173 11.04 236.813 11.312 237.357 11.856C237.901 12.4 238.173 13.04 238.173 13.776V33.264C238.173 34 237.901 34.64 237.357 35.184C236.813 35.728 236.173 36 235.437 36H232.749ZM232.749 6.24C232.013 6.24 231.373 5.968 230.829 5.424C230.285 4.88 230.013 4.24 230.013 3.504V2.736C230.013 2 230.285 1.36 230.829 0.815998C231.373 0.271997 232.013 -2.86102e-06 232.749 -2.86102e-06H235.437C236.173 -2.86102e-06 236.813 0.271997 237.357 0.815998C237.901 1.36 238.173 2 238.173 2.736V3.504C238.173 4.24 237.901 4.88 237.357 5.424C236.813 5.968 236.173 6.24 235.437 6.24H232.749ZM248.904 17.424C248.168 17.424 247.528 17.168 246.984 16.656C246.44 16.112 246.168 15.472 246.168 14.736C246.168 14 246.44 13.36 246.984 12.816C247.528 12.272 248.168 12 248.904 12H251.064C251.32 12 251.448 11.856 251.448 11.568V10.704C251.448 7.152 252.248 4.56 253.848 2.928C255.48 1.296 258.024 0.48 261.48 0.48C262.6 0.48 263.592 0.543999 264.456 0.671997C265.224 0.767998 265.864 1.136 266.376 1.776C266.888 2.416 267.144 3.136 267.144 3.936V4.08C267.144 4.752 266.872 5.296 266.328 5.712C265.784 6.096 265.176 6.24 264.504 6.144C264.248 6.112 263.88 6.096 263.4 6.096C261.832 6.096 260.776 6.4 260.232 7.008C259.72 7.616 259.464 8.832 259.464 10.656V11.568C259.464 11.856 259.608 12 259.896 12H263.928C264.664 12 265.304 12.272 265.848 12.816C266.392 13.36 266.664 14 266.664 14.736C266.664 15.472 266.392 16.112 265.848 16.656C265.304 17.168 264.664 17.424 263.928 17.424H259.896C259.608 17.424 259.464 17.568 259.464 17.856V33.264C259.464 34 259.192 34.64 258.648 35.184C258.104 35.728 257.464 36 256.728 36H254.184C253.448 36 252.808 35.728 252.264 35.184C251.72 34.64 251.448 34 251.448 33.264V17.856C251.448 17.568 251.32 17.424 251.064 17.424H248.904ZM281 36.48C278.184 36.48 276.136 35.696 274.856 34.128C273.608 32.56 272.984 29.872 272.984 26.064V13.776C272.984 13.04 273.256 12.4 273.8 11.856C274.344 11.312 274.984 11.04 275.72 11.04H277.832C278.568 11.04 279.208 11.312 279.752 11.856C280.296 12.4 280.568 13.04 280.568 13.776V25.536C280.568 27.392 280.808 28.672 281.288 29.376C281.8 30.048 282.664 30.384 283.88 30.384C285 30.384 286.024 29.936 286.952 29.04C287.88 28.112 288.344 27.12 288.344 26.064V13.776C288.344 13.04 288.616 12.4 289.16 11.856C289.704 11.312 290.344 11.04 291.08 11.04H293.384C294.12 11.04 294.76 11.312 295.304 11.856C295.848 12.4 296.12 13.04 296.12 13.776V33.264C296.12 34 295.848 34.64 295.304 35.184C294.76 35.728 294.12 36 293.384 36H291.416C290.648 36 289.992 35.744 289.448 35.232C288.936 34.688 288.664 34.032 288.632 33.264V32.88C288.632 32.848 288.616 32.832 288.584 32.832L288.488 32.928C286.408 35.296 283.912 36.48 281 36.48ZM307.85 36C307.114 36 306.474 35.728 305.93 35.184C305.386 34.64 305.114 34 305.114 33.264V2.736C305.114 2 305.386 1.36 305.93 0.815998C306.474 0.271997 307.114 -2.86102e-06 307.85 -2.86102e-06H310.538C311.274 -2.86102e-06 311.914 0.271997 312.458 0.815998C313.002 1.36 313.274 2 313.274 2.736V33.264C313.274 34 313.002 34.64 312.458 35.184C311.914 35.728 311.274 36 310.538 36H307.85ZM348.342 21.984C344.31 20.704 341.398 19.12 339.606 17.232C337.814 15.312 336.918 12.976 336.918 10.224C336.918 7.216 337.958 4.848 340.038 3.12C342.15 1.36 345.158 0.48 349.062 0.48C352.006 0.48 354.678 0.815999 357.078 1.488C357.846 1.712 358.454 2.176 358.902 2.88C359.382 3.552 359.622 4.304 359.622 5.136V6.528C359.622 7.168 359.35 7.664 358.806 8.016C358.262 8.368 357.686 8.432 357.078 8.208C354.358 7.248 351.846 6.768 349.542 6.768C346.598 6.768 345.126 7.92 345.126 10.224C345.126 12.176 346.406 13.568 348.966 14.4C353.382 15.744 356.438 17.312 358.134 19.104C359.862 20.896 360.726 23.248 360.726 26.16C360.726 33.04 356.39 36.48 347.718 36.48C344.966 36.48 342.47 36.048 340.23 35.184C339.462 34.896 338.854 34.4 338.406 33.696C337.99 32.96 337.782 32.16 337.782 31.296V29.76C337.782 29.184 338.038 28.752 338.55 28.464C339.062 28.144 339.574 28.112 340.086 28.368C342.422 29.52 344.806 30.096 347.238 30.096C348.934 30.096 350.214 29.776 351.078 29.136C351.974 28.464 352.422 27.52 352.422 26.304C352.422 25.248 352.118 24.384 351.51 23.712C350.902 23.04 349.846 22.464 348.342 21.984ZM367.848 17.424C367.112 17.424 366.472 17.168 365.928 16.656C365.384 16.112 365.112 15.472 365.112 14.736C365.112 14 365.384 13.36 365.928 12.816C366.472 12.272 367.112 12 367.848 12H369.768C370.024 12 370.152 11.856 370.152 11.568V5.616C370.152 4.88 370.424 4.24 370.968 3.696C371.512 3.152 372.152 2.88 372.888 2.88H375.192C375.928 2.88 376.568 3.152 377.112 3.696C377.656 4.24 377.928 4.88 377.928 5.616V11.568C377.928 11.856 378.072 12 378.36 12H383.064C383.8 12 384.424 12.272 384.936 12.816C385.48 13.36 385.752 14 385.752 14.736C385.752 15.472 385.48 16.112 384.936 16.656C384.424 17.168 383.8 17.424 383.064 17.424H378.36C378.072 17.424 377.928 17.568 377.928 17.856V26.064C377.928 28.08 378.104 29.36 378.456 29.904C378.84 30.448 379.672 30.72 380.952 30.72C381.624 30.72 382.152 30.688 382.536 30.624C383.24 30.528 383.864 30.688 384.408 31.104C384.952 31.52 385.224 32.064 385.224 32.736V33.12C385.224 33.92 384.968 34.624 384.456 35.232C383.944 35.84 383.288 36.192 382.488 36.288C381.496 36.416 380.344 36.48 379.032 36.48C375.768 36.48 373.464 35.792 372.12 34.416C370.808 33.008 370.152 30.496 370.152 26.88V17.856C370.152 17.568 370.024 17.424 369.768 17.424H367.848ZM407.513 17.76C406.745 16.576 405.561 15.984 403.961 15.984C402.361 15.984 401.161 16.576 400.361 17.76C399.593 18.944 399.209 20.864 399.209 23.52C399.209 26.176 399.593 28.096 400.361 29.28C401.161 30.464 402.361 31.056 403.961 31.056C405.561 31.056 406.745 30.464 407.513 29.28C408.313 28.096 408.713 26.176 408.713 23.52C408.713 20.864 408.313 18.944 407.513 17.76ZM413.225 33.072C411.017 35.344 407.929 36.48 403.961 36.48C399.993 36.48 396.905 35.344 394.697 33.072C392.489 30.8 391.385 27.616 391.385 23.52C391.385 19.424 392.489 16.24 394.697 13.968C396.905 11.696 399.993 10.56 403.961 10.56C407.929 10.56 411.017 11.696 413.225 13.968C415.433 16.24 416.537 19.424 416.537 23.52C416.537 27.616 415.433 30.8 413.225 33.072ZM425.318 36C424.582 36 423.942 35.728 423.398 35.184C422.886 34.64 422.63 34 422.63 33.264V13.776C422.63 13.04 422.886 12.4 423.398 11.856C423.942 11.312 424.582 11.04 425.318 11.04H427.67C428.406 11.04 429.03 11.312 429.542 11.856C430.086 12.4 430.358 13.04 430.358 13.776V15.792C430.358 15.824 430.374 15.84 430.406 15.84C430.47 15.84 430.502 15.824 430.502 15.792C432.486 13.136 435.254 11.584 438.806 11.136C439.542 11.04 440.166 11.264 440.678 11.808C441.222 12.352 441.494 13.008 441.494 13.776V14.16C441.494 14.896 441.222 15.536 440.678 16.08C440.166 16.624 439.526 16.928 438.758 16.992C436.166 17.28 434.15 18.176 432.71 19.68C431.302 21.152 430.598 23.072 430.598 25.44V33.264C430.598 34 430.326 34.64 429.782 35.184C429.27 35.728 428.646 36 427.91 36H425.318ZM454.976 35.616L446.864 13.584C446.608 12.976 446.672 12.4 447.056 11.856C447.44 11.312 447.968 11.04 448.64 11.04H451.664C452.432 11.04 453.136 11.296 453.776 11.808C454.416 12.288 454.832 12.912 455.024 13.68L458.672 28.608C458.672 28.64 458.688 28.656 458.72 28.656C458.752 28.656 458.768 28.64 458.768 28.608L463.136 13.632C463.328 12.864 463.744 12.24 464.384 11.76C465.056 11.28 465.808 11.04 466.64 11.04H469.28C469.92 11.04 470.432 11.312 470.816 11.856C471.2 12.4 471.28 12.976 471.056 13.584L459.728 44.016C459.44 44.784 458.96 45.392 458.288 45.84C457.616 46.32 456.88 46.56 456.08 46.56H453.44C452.768 46.56 452.256 46.288 451.904 45.744C451.552 45.232 451.504 44.672 451.76 44.064L454.976 36.384C455.008 36.256 455.024 36.128 455.024 36C455.024 35.872 455.008 35.744 454.976 35.616Z" fill="#383737"/>
</svg>
